<?xml version="1.0" encoding="utf-8"?>
<!-- Generator: Adobe Illustrator 25.3.1, SVG Export Plug-In . SVG Version: 6.00 Build 0)  -->
<svg version="1.1" id="Ebene_1" xmlns="http://www.w3.org/2000/svg" xmlns:xlink="http://www.w3.org/1999/xlink" x="0px" y="0px"
	 viewBox="0 0 697.1 192.5" style="enable-background:new 0 0 697.1 192.5;" xml:space="preserve">
<style type="text/css">
	.st0{fill:#FFFFFF;}
	.st1{clip-path:url(#SVGID_2_);}
	.st2{fill:url(#SVGID_3_);}
	.st3{fill:url(#SVGID_4_);}
	.st4{fill:url(#SVGID_5_);}
</style>
<g>
	<path class="st0" d="M203.9,172.5c-13.6-7.6-24.3-18-32.1-31.4c-7.8-13.3-11.7-28.3-11.7-44.9s3.9-31.6,11.7-44.9
		s18.5-23.8,32.1-31.4s28.9-11.4,45.8-11.4c12.5,0,24,2,34.6,6c10.5,4,19.5,10,26.9,17.9l-7.9,8.2c-13.8-13.7-31.5-20.5-53.1-20.5
		c-14.5,0-27.6,3.3-39.5,9.9s-21.1,15.7-27.9,27.3s-10.1,24.6-10.1,38.9s3.4,27.3,10.1,38.9c6.8,11.6,16.1,20.7,27.9,27.3
		c11.9,6.6,25,9.9,39.5,9.9c21.4,0,39.1-6.9,53.1-20.7l7.9,8.1c-7.4,7.9-16.4,13.9-27,18s-22.1,6.2-34.4,6.2
		C232.7,183.9,217.5,180.1,203.9,172.5z"/>
	<path class="st0" d="M516.9,182.7l-0.2-147.9l-72.4,124.9h-6.2L365.7,35.3v147.4h-12.4V9.8H364l77.3,133.6L518.6,9.8H529l0.2,172.8
		L516.9,182.7L516.9,182.7z"/>
	<path class="st0" d="M598.7,177.4c-11.4-4.4-20.4-10-26.8-16.9l5.7-9.4c6.1,6.4,14.3,11.6,24.6,15.7c10.3,4,21.1,6.1,32.5,6.1
		c16.5,0,28.9-3.1,37.3-9.4s12.6-14.4,12.6-24.4c0-7.7-2.2-13.9-6.7-18.5c-4.4-4.6-10-8.1-16.5-10.6c-6.6-2.5-15.5-5-26.7-7.6
		C621.9,99,611.8,96,604.1,93s-14.2-7.5-19.5-13.7s-8-14.4-8-24.8c0-8.4,2.2-16.1,6.7-23.1c4.4-7,11.2-12.5,20.4-16.7
		c9.1-4.1,20.5-6.2,34.2-6.2c9.5,0,18.9,1.4,28.2,4.2c9.2,2.8,17.2,6.6,24,11.4l-4.7,10.1c-6.9-4.8-14.5-8.4-22.8-10.9
		s-16.5-3.7-24.6-3.7c-16,0-28.1,3.2-36.3,9.6s-12.3,14.7-12.3,24.9c0,7.7,2.2,13.9,6.7,18.5s10,8.2,16.5,10.6
		c6.6,2.5,15.6,5.1,26.9,7.9c12.7,3.1,22.8,6.2,30.4,9.1c7.6,3,14,7.4,19.4,13.5c5.3,6,8,14.1,8,24.3c0,8.4-2.3,16.1-6.8,23
		s-11.5,12.4-20.9,16.5s-20.9,6.2-34.6,6.2C622.2,183.9,610.1,181.7,598.7,177.4z"/>
</g>
<path class="st0" d="M133.2,125.9"/>
<path class="st0" d="M96.2,125.9"/>
<g>
	<g>
		<g>
			<defs>
				<polygon id="SVGID_1_" points="0,0 0,56.3 45.2,56.3 45.2,125.9 0,125.9 0,192.5 133.2,192.5 133.2,0 				"/>
			</defs>
			<clipPath id="SVGID_2_">
				<use xlink:href="#SVGID_1_"  style="overflow:visible;"/>
			</clipPath>
			<g class="st1">
				<g>
					
						<linearGradient id="SVGID_3_" gradientUnits="userSpaceOnUse" x1="32.4148" y1="-11.0766" x2="99.0066" y2="104.2561" gradientTransform="matrix(1 0 0 1 0 77.77)">
						<stop  offset="0.1423" style="stop-color:#000000"/>
						<stop  offset="0.1995" style="stop-color:#242424"/>
						<stop  offset="0.3143" style="stop-color:#656565"/>
						<stop  offset="0.4235" style="stop-color:#9C9C9C"/>
						<stop  offset="0.5242" style="stop-color:#C7C7C7"/>
						<stop  offset="0.6145" style="stop-color:#E6E6E6"/>
						<stop  offset="0.6911" style="stop-color:#F8F8F8"/>
						<stop  offset="0.745" style="stop-color:#FFFFFF"/>
					</linearGradient>
					<path class="st2" d="M66.6,192.5C29.9,192.5,0,162.6,0,125.9s29.9-66.6,66.6-66.6s66.6,29.9,66.6,66.6S103.4,192.5,66.6,192.5z
						 M66.6,96.2c-16.3,0-29.6,13.3-29.6,29.6s13.3,29.6,29.6,29.6s29.6-13.3,29.6-29.6S83,96.2,66.6,96.2z"/>
					
						<linearGradient id="SVGID_4_" gradientUnits="userSpaceOnUse" x1="127.5643" y1="-55.47" x2="2.7922" y2="-55.47" gradientTransform="matrix(1 0 0 1 0 77.77)">
						<stop  offset="1.819017e-03" style="stop-color:#000000"/>
						<stop  offset="9.670000e-02" style="stop-color:#242424"/>
						<stop  offset="0.2867" style="stop-color:#656565"/>
						<stop  offset="0.4677" style="stop-color:#9C9C9C"/>
						<stop  offset="0.6344" style="stop-color:#C7C7C7"/>
						<stop  offset="0.7839" style="stop-color:#E6E6E6"/>
						<stop  offset="0.9108" style="stop-color:#F8F8F8"/>
						<stop  offset="1" style="stop-color:#FFFFFF"/>
					</linearGradient>
					<polygon class="st3" points="130.7,0 0,0 0,22.3 0,44.6 130.7,44.6 					"/>
					
						<linearGradient id="SVGID_5_" gradientUnits="userSpaceOnUse" x1="0.5208" y1="-11.1101" x2="131.2208" y2="-11.1101" gradientTransform="matrix(1 0 0 1 0 77.77)">
						<stop  offset="0.3099" style="stop-color:#000000"/>
						<stop  offset="0.3523" style="stop-color:#777777"/>
						<stop  offset="0.3893" style="stop-color:#D9D9D9"/>
						<stop  offset="0.4057" style="stop-color:#FFFFFF"/>
						<stop  offset="0.7047" style="stop-color:#EFEFEF"/>
						<stop  offset="0.9028" style="stop-color:#E8E8E8"/>
						<stop  offset="0.9123" style="stop-color:#DFDFDF"/>
						<stop  offset="0.9295" style="stop-color:#C7C7C6"/>
						<stop  offset="0.9525" style="stop-color:#9D9C9C"/>
						<stop  offset="0.9801" style="stop-color:#5C5C5B"/>
						<stop  offset="1" style="stop-color:#000000"/>
					</linearGradient>
					<polygon class="st4" points="130.7,0 0,88.9 0,111.3 0,125.9 0.4,133.3 130.7,44.6 					"/>
				</g>
				<path class="st0" d="M66.6,192.5C29.9,192.5,0,162.6,0,125.9l0,0h37l0,0c0,16.3,13.3,29.6,29.6,29.6"/>
			</g>
		</g>
	</g>
</g>
</svg>
