<?xml version="1.0" encoding="utf-8"?>
<!-- Generator: Adobe Illustrator 25.3.1, SVG Export Plug-In . SVG Version: 6.00 Build 0)  -->
<svg version="1.1" id="Ebene_1" xmlns="http://www.w3.org/2000/svg" xmlns:xlink="http://www.w3.org/1999/xlink" x="0px" y="0px"
	 viewBox="0 0 100 100" style="enable-background:new 0 0 100 100;" xml:space="preserve">
<style type="text/css">
	.st0{fill:#FFFFFF;}
</style>
<g>
	<g>
		<path class="st0" d="M50,91C27.4,91,9,72.6,9,50S27.4,9,50,9s41,18.4,41,41S72.6,91,50,91z M50,17.2c-18.1,0-32.8,14.7-32.8,32.8
			S31.9,82.8,50,82.8S82.8,68.1,82.8,50C82.8,31.9,68.1,17.2,50,17.2z"/>
	</g>
	<circle class="st0" cx="50" cy="43.6" r="16.6"/>
	<path class="st0" d="M50,86.9c10.4,0,19.9-4.3,26.6-11.3C73.3,64,62.7,55.5,50,55.5S26.7,64,23.4,75.6C30.1,82.6,39.6,86.9,50,86.9
		z"/>
</g>
</svg>
